# xmcd CD database file
#
# Track frame offsets:
#	150
#	17872
#	35795
#	59535
#	82485
#	93802
#	121635
#	147230
#	172360
#	181755
#	208660
#
# Disc length: 3078 seconds
#
# Revision: 0
# Processed by: cddbd v1.5.1PL0 Copyright (c) Steve Scherf et al.
# Submitted via: CDex 1.51
#
DISCID=9f0c040b
DTITLE=Susan McKeown - Bushes and Briars
DYEAR=2003
DGENRE=New Age
TTITLE0=Bushes and BriarsÄé¤ì»P¯ð´Æ
TTITLE1=H-O Abha-inn(Little One)¤pÄ_¨©
TTITLE2=In London So Far­Û´°¥«¶°
TTITLE3=Seoladh na nGamhna(Driving the Calves)ÃM¤p¤û¤§ºq
TTITLE4=Bonny Boy º}«GÄ_¨©
TTITLE5=The Mountain Streams ¤s¶¡·Ë¬yWhere the Moorcocks Crow
TTITLE6=Banks of Cloudy §J³Ò­}³ö©¤
TTITLE7=Craigie Hill «¶¹p¸ñ¤s¥C
TTITLE8=A Mhaire Bhruinneall 
TTITLE9=Donal Og
TTITLE10=After Aughrim
EXTD=YEAR: 2003
EXTT0=
EXTT1=
EXTT2=
EXTT3=
EXTT4=
EXTT5=
EXTT6=
EXTT7=
EXTT8=
EXTT9=
EXTT10=
PLAYORDER=
